<svg width="58" height="58" viewBox="0 0 58 58" fill="none" xmlns="http://www.w3.org/2000/svg">
<path fill-rule="evenodd" clip-rule="evenodd" d="M29 11C30.1046 11 31 11.8954 31 13V27H45C46.1046 27 47 27.8954 47 29C47 30.1046 46.1046 31 45 31H29C27.8954 31 27 30.1046 27 29V13C27 11.8954 27.8954 11 29 11Z" fill="white"/>
<path fill-rule="evenodd" clip-rule="evenodd" d="M0.333374 29C0.333374 13.1674 13.1675 0.333344 29 0.333344C44.8326 0.333344 57.6667 13.1674 57.6667 29C57.6667 44.8326 44.8326 57.6667 29 57.6667C13.1675 57.6667 0.333374 44.8326 0.333374 29ZM29 4.33334C15.3766 4.33334 4.33337 15.3766 4.33337 29C4.33337 42.6234 15.3766 53.6667 29 53.6667C42.6235 53.6667 53.6667 42.6234 53.6667 29C53.6667 15.3766 42.6235 4.33334 29 4.33334Z" fill="white"/>
</svg>
