<svg width="42" height="54" viewBox="0 0 42 54" fill="none" xmlns="http://www.w3.org/2000/svg">
<path fill-rule="evenodd" clip-rule="evenodd" d="M0.847656 21.0053C0.847656 9.82945 9.85961 0.75238 21 0.75238C32.1405 0.75238 41.1524 9.82945 41.1524 21.0053C41.1524 26.4173 37.795 33.2829 31.7546 41.4215L31.7433 41.4366L30.2901 43.3536C28.5175 45.6428 26.5308 48.0423 24.3292 50.5638L24.3193 50.5751L22.3962 52.7419C22.044 53.1388 21.5395 53.367 21.0089 53.3695C20.4783 53.372 19.9717 53.1486 19.6158 52.7551C16.8694 49.7193 14.2338 46.5873 11.7144 43.3591L11.6982 43.3384L10.2454 41.4215C4.205 33.283 0.847656 26.4173 0.847656 21.0053ZM21 4.48571C11.9408 4.48571 4.58099 11.8719 4.58099 21.0053C4.58099 25.1067 7.24403 31.1118 13.2378 39.189L14.6655 41.0725C16.6986 43.6771 18.8095 46.2182 20.9954 48.6959L21.517 48.1083C21.5186 48.1064 21.5203 48.1045 21.5219 48.1026C23.68 45.6308 25.6152 43.2927 27.3324 41.0753L28.7623 39.189C34.7561 31.1118 37.4191 25.1067 37.4191 21.0053C37.4191 11.8719 30.0592 4.48571 21 4.48571Z" fill="white"/>
<path fill-rule="evenodd" clip-rule="evenodd" d="M21.0001 15.1524C17.8232 15.1524 15.2477 17.7278 15.2477 20.9048C15.2477 24.0817 17.8232 26.6571 21.0001 26.6571C24.1771 26.6571 26.7525 24.0817 26.7525 20.9048C26.7525 17.7278 24.1771 15.1524 21.0001 15.1524ZM11.5144 20.9048C11.5144 15.6659 15.7613 11.419 21.0001 11.419C26.2389 11.419 30.4858 15.6659 30.4858 20.9048C30.4858 26.1436 26.2389 30.3905 21.0001 30.3905C15.7613 30.3905 11.5144 26.1436 11.5144 20.9048Z" fill="white"/>
</svg>
